<?xml version="1.0" ?><!-- Uploaded to: SVG Repo, www.svgrepo.com, Generator: SVG Repo Mixer Tools -->
<svg width="800px" height="800px" viewBox="0 0 24 24" data-name="025_SCIENCE" id="_025_SCIENCE" xmlns="http://www.w3.org/2000/svg"><defs><style>.cls-1{fill:#333;}</style></defs><path class="cls-1" d="M6,9H3A1,1,0,0,1,3,7H6A1,1,0,0,0,6,5,1,1,0,0,1,6,3,3,3,0,0,1,6,9Z"/><path class="cls-1" d="M11,13H3a1,1,0,0,1,0-2h8a1,1,0,0,1,0,2Z"/><path class="cls-1" d="M11,13a1,1,0,0,1,0-2,1,1,0,0,0,0-2,1,1,0,0,1,0-2,3,3,0,0,1,0,6Z"/><path class="cls-1" d="M7,21a1,1,0,0,1,0-2,1,1,0,0,0,0-2H3a1,1,0,0,1,0-2H7a3,3,0,0,1,0,6Z"/><path class="cls-1" d="M17.5,18a1,1,0,0,1-.82-1.57L19.08,13H16.5a1,1,0,0,1-.89-.54,1,1,0,0,1,.07-1l3.5-5a1,1,0,0,1,1.64,1.14L18.42,11H21a1,1,0,0,1,.89.54,1,1,0,0,1-.07,1l-3.5,5A1,1,0,0,1,17.5,18Z"/></svg>